<svg xmlns="http://www.w3.org/2000/svg" xmlns:xlink="http://www.w3.org/1999/xlink" width="500" zoomAndPan="magnify" viewBox="0 0 375 374.999991" height="500" preserveAspectRatio="xMidYMid meet" version="1.0"><defs><clipPath id="88b88bffe6"><path d="M 52.992188 61.109375 L 361.992188 61.109375 L 361.992188 370.109375 L 52.992188 370.109375 Z M 52.992188 61.109375 " clip-rule="nonzero"/></clipPath></defs><rect x="-37.5" width="450" fill="#ffffff" y="-37.499999" height="449.999989" fill-opacity="1"/><rect x="-37.5" width="450" fill="#ffffff" y="-37.499999" height="449.999989" fill-opacity="1"/><rect x="-37.5" width="450" fill="#ffffff" y="-37.499999" height="449.999989" fill-opacity="1"/><path fill="#a9c7b6" d="M 331.09375 215.609375 C 331.09375 283.867188 275.75 339.207031 207.492188 339.207031 C 139.234375 339.207031 83.894531 283.867188 83.894531 215.609375 C 83.894531 147.351562 139.234375 92.007812 207.492188 92.007812 C 275.75 92.007812 331.09375 147.351562 331.09375 215.609375 " fill-opacity="1" fill-rule="nonzero"/><g clip-path="url(#88b88bffe6)"><path fill="#72a086" d="M 207.492188 71.410156 C 127.96875 71.410156 63.292969 136.085938 63.292969 215.609375 C 63.292969 295.132812 127.96875 359.808594 207.492188 359.808594 C 287.015625 359.808594 351.695312 295.132812 351.695312 215.609375 C 351.695312 136.085938 287.015625 71.410156 207.492188 71.410156 Z M 207.492188 370.109375 C 122.296875 370.109375 52.992188 300.804688 52.992188 215.609375 C 52.992188 130.414062 122.296875 61.109375 207.492188 61.109375 C 292.691406 61.109375 361.992188 130.414062 361.992188 215.609375 C 361.992188 300.804688 292.691406 370.109375 207.492188 370.109375 " fill-opacity="1" fill-rule="nonzero"/></g><path fill="#74875b" d="M 207.492188 205.308594 C 172.871094 205.308594 143.984375 229.710938 137.023438 262.242188 C 152.957031 283.90625 178.546875 298.007812 207.492188 298.007812 C 236.441406 298.007812 262.03125 283.90625 277.964844 262.242188 C 271.003906 229.710938 242.117188 205.308594 207.492188 205.308594 " fill-opacity="1" fill-rule="nonzero"/><path fill="#72a086" d="M 171.445312 169.257812 C 171.445312 189.175781 187.578125 205.308594 207.492188 205.308594 C 227.410156 205.308594 243.542969 189.175781 243.542969 169.257812 C 243.542969 149.34375 227.410156 133.207031 207.492188 133.207031 C 187.578125 133.207031 171.445312 149.34375 171.445312 169.257812 " fill-opacity="1" fill-rule="nonzero"/></svg>